0
SECTION
2
HEADER
9
$INSUNITS
70
4
9
$ACADVER
1
AC1014
9
$HANDSEED
5
FFFF
0
ENDSEC
0
SECTION
2
TABLES
0
TABLE
2
VPORT
5
8
100
AcDbSymbolTable
0
ENDTAB
0
TABLE
2
LTYPE
5
5
100
AcDbSymbolTable
0
LTYPE
5
14
100
AcDbSymbolTableRecord
100
AcDbLinetypeTableRecord
2
BYBLOCK
70
0
0
LTYPE
5
15
100
AcDbSymbolTableRecord
100
AcDbLinetypeTableRecord
2
BYLAYER
70
0
0
LTYPE
5
16
100
AcDbSymbolTableRecord
100
AcDbLinetypeTableRecord
2
DASHED
70
0
3
Dashed __ __ __ __ __ __ __ __ __ __ __ __ __ _
72
65
73
2
40
0.75
49
0.5
74
0
49
-0.25
74
0
0
ENDTAB
0
TABLE
2
LAYER
5
2
100
AcDbSymbolTable
70
2
0
LAYER
5
50
100
AcDbSymbolTableRecord
100
AcDbLayerTableRecord
2
0
70
0
62
7
6
CONTINUOUS
0
ENDTAB
0
TABLE
2
STYLE
5
3
100
AcDbSymbolTable
70
1
0
STYLE
5
11
100
AcDbSymbolTableRecord
100
AcDbTextStyleTableRecord
2
STANDARD
70
0
0
ENDTAB
0
TABLE
2
VIEW
5
6
100
AcDbSymbolTable
70
0
0
ENDTAB
0
TABLE
2
UCS
5
7
100
AcDbSymbolTable
70
0
0
ENDTAB
0
TABLE
2
APPID
5
9
100
AcDbSymbolTable
70
2
0
APPID
5
12
100
AcDbSymbolTableRecord
100
AcDbRegAppTableRecord
2
ACAD
70
0
0
ENDTAB
0
TABLE
2
DIMSTYLE
5
A
100
AcDbSymbolTable
70
1
0
ENDTAB
0
TABLE
2
BLOCK_RECORD
5
1
100
AcDbSymbolTable
70
1
0
BLOCK_RECORD
5
1F
100
AcDbSymbolTableRecord
100
AcDbBlockTableRecord
2
*MODEL_SPACE
0
BLOCK_RECORD
5
1B
100
AcDbSymbolTableRecord
100
AcDbBlockTableRecord
2
*PAPER_SPACE
0
ENDTAB
0
ENDSEC
0
SECTION
2
BLOCKS
0
BLOCK
5
20
100
AcDbEntity
100
AcDbBlockBegin
2
*MODEL_SPACE
0
ENDBLK
5
21
100
AcDbEntity
100
AcDbBlockEnd
0
BLOCK
5
1C
100
AcDbEntity
100
AcDbBlockBegin
2
*PAPER_SPACE
0
ENDBLK
5
1D
100
AcDbEntity
100
AcDbBlockEnd
0
ENDSEC
0
SECTION
2
ENTITIES
0
CIRCLE
5
100
100
AcDbEntity
8
0
100
AcDbCircle
10
-136.80691076185926
20
53.444312139318448
30
0
40
0.99999999999999645
210
0
220
-0
230
1
0
CIRCLE
5
101
100
AcDbEntity
8
0
100
AcDbCircle
10
137.19308923814077
20
217.67726940097111
30
0
40
0.99999999999999645
210
0
220
-0
230
1
0
CIRCLE
5
102
100
AcDbEntity
8
0
100
AcDbCircle
10
-136.80691076185926
20
217.67726940097111
30
0
40
0.99999999999999645
210
0
220
-0
230
1
0
CIRCLE
5
103
100
AcDbEntity
8
0
100
AcDbCircle
10
137.19308923814077
20
53.444312139318448
30
0
40
0.99999999999999645
210
0
220
-0
230
1
0
LWPOLYLINE
5
104
100
AcDbEntity
8
0
100
AcDbPolyline
90
12
70
1
43
0.0
10
-34.806910761859257
20
227.67726940097111
10
-34.777306540152736
20
233.67726940097114
10
-149.80691076185926
20
233.67726940097114
10
-149.80691076185926
20
-66.322730599028858
10
-101.80691076185921
20
-66.322730599028858
10
-101.80691076185921
20
37.44431213931847
10
102.1930892381407
20
37.444312139318463
10
102.1930892381407
20
-66.322730599028873
10
150.19308923814074
20
-66.322730599028858
10
150.19308923814074
20
233.67726940097114
10
35.193089238140743
20
233.67726940097114
10
35.193089238140743
20
227.67726940097117
42
-0.41940527986530762
0
CIRCLE
5
105
100
AcDbEntity
8
0
100
AcDbCircle
10
-136.80691076185926
20
53.444312139318448
30
0
40
0.99999999999999645
210
0
220
0
230
1
0
CIRCLE
5
106
100
AcDbEntity
8
0
100
AcDbCircle
10
137.19308923814077
20
217.67726940097111
30
0
40
0.99999999999999645
210
0
220
0
230
1
0
CIRCLE
5
107
100
AcDbEntity
8
0
100
AcDbCircle
10
-136.80691076185926
20
217.67726940097111
30
0
40
0.99999999999999645
210
0
220
0
230
1
0
CIRCLE
5
108
100
AcDbEntity
8
0
100
AcDbCircle
10
137.19308923814077
20
53.444312139318448
30
0
40
0.99999999999999645
210
0
220
0
230
1
0
LWPOLYLINE
5
109
100
AcDbEntity
8
0
100
AcDbPolyline
90
12
70
1
43
0.0
10
35.193089238140743
20
227.67726940097111
10
35.193089238140743
20
233.67726940097114
10
150.19308923814074
20
233.67726940097114
10
150.19308923814074
20
-66.322730599028858
10
102.1930892381407
20
-66.322730599028858
10
102.1930892381407
20
37.44431213931847
10
-101.80691076185921
20
37.444312139318463
10
-101.80691076185921
20
-66.322730599028858
10
-149.80691076185926
20
-66.322730599028858
10
-149.80691076185926
20
233.67726940097114
10
-34.777306540152736
20
233.67726940097114
10
-34.806910761859257
20
227.67726940097111
42
0.41940527986530762
0
CIRCLE
5
110
100
AcDbEntity
8
0
100
AcDbCircle
10
-89.655218609077977
20
-51.741124388536676
30
0
40
0.99999999999999645
210
0
220
0
230
1
0
CIRCLE
5
111
100
AcDbEntity
8
0
100
AcDbCircle
10
90.041397085359463
20
27.44431213931847
30
0
40
1.0000000000000142
210
0
220
0
230
1
0
CIRCLE
5
112
100
AcDbEntity
8
0
100
AcDbCircle
10
-89.655218609077977
20
27.44431213931847
30
0
40
1.0000000000000142
210
0
220
0
230
1
0
CIRCLE
5
113
100
AcDbEntity
8
0
100
AcDbCircle
10
90.041397085359463
20
-51.741124388536676
30
0
40
0.99999999999999645
210
0
220
0
230
1
0
LWPOLYLINE
5
114
100
AcDbEntity
8
0
100
AcDbPolyline
90
2
70
1
43
0.0
10
27.064546169993374
20
22.444312139318448
10
-27.030382144037659
20
22.444312139318452
42
0.58010671805255865
0
LWPOLYLINE
5
115
100
AcDbEntity
8
0
100
AcDbPolyline
90
4
70
1
43
0.0
10
102.1930892381407
20
37.444312139318463
10
102.1930892381407
20
-66.322730599028873
10
-101.80691076185921
20
-66.322730599028858
10
-101.80691076185921
20
37.444312139318463
0
ENDSEC
0
SECTION
2
OBJECTS
0
DICTIONARY
5
C
100
AcDbDictionary
3
ACAD_GROUP
350
D
3
ACAD_MLINESTYLE
350
17
0
DICTIONARY
5
D
100
AcDbDictionary
0
DICTIONARY
5
1A
330
C
100
AcDbDictionary
0
DICTIONARY
5
17
100
AcDbDictionary
0
ENDSEC
0
EOF
