0
SECTION
2
HEADER
9
$INSUNITS
70
4
9
$ACADVER
1
AC1014
9
$HANDSEED
5
FFFF
0
ENDSEC
0
SECTION
2
TABLES
0
TABLE
2
VPORT
5
8
100
AcDbSymbolTable
0
ENDTAB
0
TABLE
2
LTYPE
5
5
100
AcDbSymbolTable
0
LTYPE
5
14
100
AcDbSymbolTableRecord
100
AcDbLinetypeTableRecord
2
BYBLOCK
70
0
0
LTYPE
5
15
100
AcDbSymbolTableRecord
100
AcDbLinetypeTableRecord
2
BYLAYER
70
0
0
LTYPE
5
16
100
AcDbSymbolTableRecord
100
AcDbLinetypeTableRecord
2
DASHED
70
0
3
Dashed __ __ __ __ __ __ __ __ __ __ __ __ __ _
72
65
73
2
40
0.75
49
0.5
74
0
49
-0.25
74
0
0
ENDTAB
0
TABLE
2
LAYER
5
2
100
AcDbSymbolTable
70
2
0
LAYER
5
50
100
AcDbSymbolTableRecord
100
AcDbLayerTableRecord
2
0
70
0
62
7
6
CONTINUOUS
0
ENDTAB
0
TABLE
2
STYLE
5
3
100
AcDbSymbolTable
70
1
0
STYLE
5
11
100
AcDbSymbolTableRecord
100
AcDbTextStyleTableRecord
2
STANDARD
70
0
0
ENDTAB
0
TABLE
2
VIEW
5
6
100
AcDbSymbolTable
70
0
0
ENDTAB
0
TABLE
2
UCS
5
7
100
AcDbSymbolTable
70
0
0
ENDTAB
0
TABLE
2
APPID
5
9
100
AcDbSymbolTable
70
2
0
APPID
5
12
100
AcDbSymbolTableRecord
100
AcDbRegAppTableRecord
2
ACAD
70
0
0
ENDTAB
0
TABLE
2
DIMSTYLE
5
A
100
AcDbSymbolTable
70
1
0
ENDTAB
0
TABLE
2
BLOCK_RECORD
5
1
100
AcDbSymbolTable
70
1
0
BLOCK_RECORD
5
1F
100
AcDbSymbolTableRecord
100
AcDbBlockTableRecord
2
*MODEL_SPACE
0
BLOCK_RECORD
5
1B
100
AcDbSymbolTableRecord
100
AcDbBlockTableRecord
2
*PAPER_SPACE
0
ENDTAB
0
ENDSEC
0
SECTION
2
BLOCKS
0
BLOCK
5
20
100
AcDbEntity
100
AcDbBlockBegin
2
*MODEL_SPACE
0
ENDBLK
5
21
100
AcDbEntity
100
AcDbBlockEnd
0
BLOCK
5
1C
100
AcDbEntity
100
AcDbBlockBegin
2
*PAPER_SPACE
0
ENDBLK
5
1D
100
AcDbEntity
100
AcDbBlockEnd
0
ENDSEC
0
SECTION
2
ENTITIES
0
SPLINE
5
100
100
AcDbEntity
8
0
100
AcDbSpline
70
4
71
3
72
8
73
4
74
0
42
0.000000001
43
0.0000000001
44
0.0000000001
40
-1
40
-1
40
-1
40
-1
40
0
40
0
40
0
40
0
41
1
41
1
41
1
41
1
10
-88.363541666666663
20
85.286458333333314
30
0
10
-90.691874999999982
20
84.810208333333321
30
0
10
-91.591458333333321
20
84.810208333333321
30
0
10
-93.919791666666654
20
85.286458333333314
30
0
0
SPLINE
5
101
100
AcDbEntity
8
0
100
AcDbSpline
70
4
71
3
72
8
73
4
74
0
42
0.000000001
43
0.0000000001
44
0.0000000001
40
-1
40
-1
40
-1
40
-1
40
0
40
0
40
0
40
0
41
1
41
1
41
1
41
1
10
-93.919791666666654
20
85.286458333333314
30
0
10
-97.015416666666653
20
85.947916666666643
30
0
10
-99.846458333333317
20
87.508958333333297
30
0
10
-102.35999999999999
20
89.996041666666656
30
0
0
SPLINE
5
102
100
AcDbEntity
8
0
100
AcDbSpline
70
4
71
3
72
8
73
4
74
0
42
0.000000001
43
0.0000000001
44
0.0000000001
40
-1
40
-1
40
-1
40
-1
40
0
40
0
40
0
40
0
41
1
41
1
41
1
41
1
10
-102.35999999999999
20
89.996041666666656
30
0
10
-107.41354166666667
20
95.049583333333288
30
0
10
-110.27104166666666
20
101.79645833333333
30
0
10
-110.95895833333331
20
110.31604166666666
30
0
0
SPLINE
5
103
100
AcDbEntity
8
0
100
AcDbSpline
70
4
71
3
72
8
73
4
74
0
42
0.000000001
43
0.0000000001
44
0.0000000001
40
-1
40
-1
40
-1
40
-1
40
0
40
0
40
0
40
0
41
1
41
1
41
1
41
1
10
-110.95895833333331
20
110.31604166666666
30
0
10
-112.17604166666666
20
125.37083333333331
30
0
10
-104.92645833333333
20
139.04979166666666
30
0
10
-94.316666666666663
20
141.64270833333336
30
0
0
SPLINE
5
104
100
AcDbEntity
8
0
100
AcDbSpline
70
4
71
3
72
8
73
4
74
0
42
0.000000001
43
0.0000000001
44
0.0000000001
40
-1
40
-1
40
-1
40
-1
40
0
40
0
40
0
40
0
41
1
41
1
41
1
41
1
10
-94.316666666666663
20
141.64270833333336
30
0
10
-89.633541666666645
20
142.7804166666667
30
0
10
-84.394791666666649
20
141.21937500000004
30
0
10
-80.399583333333311
20
137.46229166666669
30
0
0
SPLINE
5
105
100
AcDbEntity
8
0
100
AcDbSpline
70
4
71
3
72
8
73
4
74
0
42
0.000000001
43
0.0000000001
44
0.0000000001
40
-1
40
-1
40
-1
40
-1
40
0
40
0
40
0
40
0
41
1
41
1
41
1
41
1
10
-80.399583333333311
20
137.46229166666669
30
0
10
-76.986458333333317
20
134.28729166666662
30
0
10
-74.684583333333322
20
130.583125
30
0
10
-73.044166666666655
20
125.63541666666664
30
0
0
SPLINE
5
106
100
AcDbEntity
8
0
100
AcDbSpline
70
4
71
3
72
8
73
4
74
0
42
0.000000001
43
0.0000000001
44
0.0000000001
40
-1
40
-1
40
-1
40
-1
40
0
40
0
40
0
40
0
41
1
41
1
41
1
41
1
10
-73.044166666666655
20
125.63541666666664
30
0
10
-71.641874999999985
20
121.40208333333334
30
0
10
-71.192083333333315
20
118.518125
30
0
10
-71.192083333333315
20
113.46458333333329
30
0
0
SPLINE
5
107
100
AcDbEntity
8
0
100
AcDbSpline
70
4
71
3
72
8
73
4
74
0
42
0.000000001
43
0.0000000001
44
0.0000000001
40
-1
40
-1
40
-1
40
-1
40
0
40
0
40
0
40
0
41
1
41
1
41
1
41
1
10
-71.192083333333315
20
113.46458333333329
30
0
10
-71.192083333333315
20
108.78145833333333
30
0
10
-71.536041666666648
20
106.24145833333333
30
0
10
-72.779583333333321
20
102.08749999999998
30
0
0
SPLINE
5
108
100
AcDbEntity
8
0
100
AcDbSpline
70
4
71
3
72
8
73
4
74
0
42
0.000000001
43
0.0000000001
44
0.0000000001
40
-1
40
-1
40
-1
40
-1
40
0
40
0
40
0
40
0
41
1
41
1
41
1
41
1
10
-72.779583333333321
20
102.08749999999998
30
0
10
-75.451874999999987
20
93.2239583333333
30
0
10
-81.484375
20
86.715208333333322
30
0
10
-88.363541666666663
20
85.286458333333314
30
0
0
SPLINE
5
109
100
AcDbEntity
8
0
100
AcDbSpline
70
4
71
3
72
8
73
4
74
0
42
0.000000001
43
0.0000000001
44
0.0000000001
40
-1
40
-1
40
-1
40
-1
40
0
40
0
40
0
40
0
41
1
41
1
41
1
41
1
10
18.290000000000024
20
104.41583333333332
30
0
10
17.893125000000012
20
101.92874999999999
30
0
10
15.77645833333337
20
98.674374999999955
30
0
10
13.183541666666692
20
96.531249999999957
30
0
0
SPLINE
5
110
100
AcDbEntity
8
0
100
AcDbSpline
70
4
71
3
72
8
73
4
74
0
42
0.000000001
43
0.0000000001
44
0.0000000001
40
-1
40
-1
40
-1
40
-1
40
0
40
0
40
0
40
0
41
1
41
1
41
1
41
1
10
13.183541666666692
20
96.531249999999957
30
0
10
7.2568750000000293
20
91.609999999999957
30
0
10
-4.0672916666666481
20
90.922083333333305
30
0
10
-11.846041666666638
20
94.996666666666641
30
0
0
SPLINE
5
111
100
AcDbEntity
8
0
100
AcDbSpline
70
4
71
3
72
8
73
4
74
0
42
0.000000001
43
0.0000000001
44
0.0000000001
40
-1
40
-1
40
-1
40
-1
40
0
40
0
40
0
40
0
41
1
41
1
41
1
41
1
10
-11.846041666666638
20
94.996666666666641
30
0
10
-13.830416666666636
20
96.028541666666655
30
0
10
-16.926041666666656
20
99.04479166666664
30
0
10
-17.904999999999973
20
100.92333333333332
30
0
0
SPLINE
5
112
100
AcDbEntity
8
0
100
AcDbSpline
70
4
71
3
72
8
73
4
74
0
42
0.000000001
43
0.0000000001
44
0.0000000001
40
-1
40
-1
40
-1
40
-1
40
0
40
0
40
0
40
0
41
1
41
1
41
1
41
1
10
-17.904999999999973
20
100.92333333333332
30
0
10
-19.942291666666634
20
104.73333333333332
30
0
10
-19.624791666666628
20
107.32625000000002
30
0
10
-16.926041666666656
20
108.99312499999999
30
0
0
SPLINE
5
113
100
AcDbEntity
8
0
100
AcDbSpline
70
4
71
3
72
8
73
4
74
0
42
0.000000001
43
0.0000000001
44
0.0000000001
40
-1
40
-1
40
-1
40
-1
40
0
40
0
40
0
40
0
41
1
41
1
41
1
41
1
10
-16.926041666666656
20
108.99312499999999
30
0
10
-14.624166666666625
20
110.42187499999996
30
0
10
-11.263958333333308
20
108.83437499999998
30
0
10
-10.549583333333308
20
105.9239583333333
30
0
0
SPLINE
5
114
100
AcDbEntity
8
0
100
AcDbSpline
70
4
71
3
72
8
73
4
74
0
42
0.000000001
43
0.0000000001
44
0.0000000001
40
-1
40
-1
40
-1
40
-1
40
0
40
0
40
0
40
0
41
1
41
1
41
1
41
1
10
-10.549583333333308
20
105.9239583333333
30
0
10
-10.232083333333293
20
104.706875
30
0
10
-8.1418749999999562
20
102.77541666666663
30
0
10
-6.3427083333332934
20
102.11395833333333
30
0
0
SPLINE
5
115
100
AcDbEntity
8
0
100
AcDbSpline
70
4
71
3
72
8
73
4
74
0
42
0.000000001
43
0.0000000001
44
0.0000000001
40
-1
40
-1
40
-1
40
-1
40
0
40
0
40
0
40
0
41
1
41
1
41
1
41
1
10
-6.3427083333332934
20
102.11395833333333
30
0
10
-4.1466666666666363
20
101.29374999999999
30
0
10
-1.0245833333332843
20
100.97624999999999
30
0
10
1.7800000000000438
20
101.29374999999999
30
0
0
SPLINE
5
116
100
AcDbEntity
8
0
100
AcDbSpline
70
4
71
3
72
8
73
4
74
0
42
0.000000001
43
0.0000000001
44
0.0000000001
40
-1
40
-1
40
-1
40
-1
40
0
40
0
40
0
40
0
41
1
41
1
41
1
41
1
10
1.7800000000000438
20
101.29374999999999
30
0
10
4.3729166666666863
20
101.58479166666666
30
0
10
5.9075000000000166
20
102.08749999999998
30
0
10
7.2833333333333528
20
103.11937500000002
30
0
0
SPLINE
5
117
100
AcDbEntity
8
0
100
AcDbSpline
70
4
71
3
72
8
73
4
74
0
42
0.000000001
43
0.0000000001
44
0.0000000001
40
-1
40
-1
40
-1
40
-1
40
0
40
0
40
0
40
0
41
1
41
1
41
1
41
1
10
7.2833333333333528
20
103.11937500000002
30
0
10
8.526875000000036
20
104.01895833333333
30
0
10
8.7650000000000361
20
104.33645833333333
30
0
10
9.6381250000000485
20
106.215
30
0
0
SPLINE
5
118
100
AcDbEntity
8
0
100
AcDbSpline
70
4
71
3
72
8
73
4
74
0
42
0.000000001
43
0.0000000001
44
0.0000000001
40
-1
40
-1
40
-1
40
-1
40
0
40
0
40
0
40
0
41
1
41
1
41
1
41
1
10
9.6381250000000485
20
106.215
30
0
10
10.431875000000037
20
107.88187500000001
30
0
10
11.62250000000002
20
109.12541666666664
30
0
10
12.733750000000033
20
109.38999999999999
30
0
0
SPLINE
5
119
100
AcDbEntity
8
0
100
AcDbSpline
70
4
71
3
72
8
73
4
74
0
42
0.000000001
43
0.0000000001
44
0.0000000001
40
-1
40
-1
40
-1
40
-1
40
0
40
0
40
0
40
0
41
1
41
1
41
1
41
1
10
12.733750000000033
20
109.38999999999999
30
0
10
13.924375000000033
20
109.68104166666666
30
0
10
15.697083333333399
20
109.33708333333334
30
0
10
16.649583333333329
20
108.59624999999997
30
0
0
SPLINE
5
120
100
AcDbEntity
8
0
100
AcDbSpline
70
4
71
3
72
8
73
4
74
0
42
0.000000001
43
0.0000000001
44
0.0000000001
40
-1
40
-1
40
-1
40
-1
40
0
40
0
40
0
40
0
41
1
41
1
41
1
41
1
10
16.649583333333329
20
108.59624999999997
30
0
10
17.840208333333329
20
107.69666666666666
30
0
10
18.528125000000006
20
105.9239583333333
30
0
10
18.290000000000024
20
104.41583333333332
30
0
0
SPLINE
5
121
100
AcDbEntity
8
0
100
AcDbSpline
70
4
71
3
72
8
73
4
74
0
42
0.000000001
43
0.0000000001
44
0.0000000001
40
-1
40
-1
40
-1
40
-1
40
0
40
0
40
0
40
0
41
1
41
1
41
1
41
1
10
71.100833333333384
20
104.73333333333332
30
0
10
70.439375000000013
20
107.32625000000002
30
0
10
70.386458333333366
20
107.9083333333333
30
0
10
70.386458333333366
20
113.33229166666663
30
0
0
SPLINE
5
122
100
AcDbEntity
8
0
100
AcDbSpline
70
4
71
3
72
8
73
4
74
0
42
0.000000001
43
0.0000000001
44
0.0000000001
40
-1
40
-1
40
-1
40
-1
40
0
40
0
40
0
40
0
41
1
41
1
41
1
41
1
10
70.386458333333366
20
113.33229166666663
30
0
10
70.386458333333366
20
118.01541666666664
30
0
10
70.492291666666702
20
119.57645833333331
30
0
10
70.862708333333416
20
121.26979166666663
30
0
0
SPLINE
5
123
100
AcDbEntity
8
0
100
AcDbSpline
70
4
71
3
72
8
73
4
74
0
42
0.000000001
43
0.0000000001
44
0.0000000001
40
-1
40
-1
40
-1
40
-1
40
0
40
0
40
0
40
0
41
1
41
1
41
1
41
1
10
70.862708333333416
20
121.26979166666663
30
0
10
72.9264583333334
20
130.37145833333332
30
0
10
77.318541666666675
20
137.11833333333334
30
0
10
83.218750000000028
20
140.16104166666668
30
0
0
SPLINE
5
124
100
AcDbEntity
8
0
100
AcDbSpline
70
4
71
3
72
8
73
4
74
0
42
0.000000001
43
0.0000000001
44
0.0000000001
40
-1
40
-1
40
-1
40
-1
40
0
40
0
40
0
40
0
41
1
41
1
41
1
41
1
10
83.218750000000028
20
140.16104166666668
30
0
10
84.356458333333393
20
140.76958333333332
30
0
10
85.970416666666722
20
141.43104166666666
30
0
10
86.843541666666681
20
141.64270833333336
30
0
0
SPLINE
5
125
100
AcDbEntity
8
0
100
AcDbSpline
70
4
71
3
72
8
73
4
74
0
42
0.000000001
43
0.0000000001
44
0.0000000001
40
-1
40
-1
40
-1
40
-1
40
0
40
0
40
0
40
0
41
1
41
1
41
1
41
1
10
86.843541666666681
20
141.64270833333336
30
0
10
88.85437500000009
20
142.14541666666668
30
0
10
92.34687500000004
20
141.98666666666671
30
0
10
94.595833333333346
20
141.27229166666669
30
0
0
SPLINE
5
126
100
AcDbEntity
8
0
100
AcDbSpline
70
4
71
3
72
8
73
4
74
0
42
0.000000001
43
0.0000000001
44
0.0000000001
40
-1
40
-1
40
-1
40
-1
40
0
40
0
40
0
40
0
41
1
41
1
41
1
41
1
10
94.595833333333346
20
141.27229166666669
30
0
10
101.79250000000008
20
138.99687500000002
30
0
10
107.48104166666667
20
131.11229166666666
30
0
10
109.59770833333337
20
120.47604166666662
30
0
0
SPLINE
5
127
100
AcDbEntity
8
0
100
AcDbSpline
70
4
71
3
72
8
73
4
74
0
42
0.000000001
43
0.0000000001
44
0.0000000001
40
-1
40
-1
40
-1
40
-1
40
0
40
0
40
0
40
0
41
1
41
1
41
1
41
1
10
109.59770833333337
20
120.47604166666662
30
0
10
110.23270833333339
20
117.19520833333333
30
0
10
110.23270833333339
20
109.78687499999998
30
0
10
109.57125000000005
20
106.45312499999997
30
0
0
SPLINE
5
128
100
AcDbEntity
8
0
100
AcDbSpline
70
4
71
3
72
8
73
4
74
0
42
0.000000001
43
0.0000000001
44
0.0000000001
40
-1
40
-1
40
-1
40
-1
40
0
40
0
40
0
40
0
41
1
41
1
41
1
41
1
10
109.57125000000005
20
106.45312499999997
30
0
10
108.24833333333338
20
99.706249999999969
30
0
10
105.81416666666672
20
94.626249999999956
30
0
10
101.9777083333334
20
90.578124999999957
30
0
0
SPLINE
5
129
100
AcDbEntity
8
0
100
AcDbSpline
70
4
71
3
72
8
73
4
74
0
42
0.000000001
43
0.0000000001
44
0.0000000001
40
-1
40
-1
40
-1
40
-1
40
0
40
0
40
0
40
0
41
1
41
1
41
1
41
1
10
101.9777083333334
20
90.578124999999957
30
0
10
95.098541666666705
20
83.328541666666695
30
0
10
85.8645833333334
20
83.116874999999993
30
0
10
78.826666666666725
20
90.048958333333303
30
0
0
SPLINE
5
130
100
AcDbEntity
8
0
100
AcDbSpline
70
4
71
3
72
8
73
4
74
0
42
0.000000001
43
0.0000000001
44
0.0000000001
40
-1
40
-1
40
-1
40
-1
40
0
40
0
40
0
40
0
41
1
41
1
41
1
41
1
10
78.826666666666725
20
90.048958333333303
30
0
10
75.122500000000073
20
93.726666666666659
30
0
10
72.741250000000051
20
98.198125000000005
30
0
10
71.100833333333384
20
104.73333333333332
30
0
0
CIRCLE
5
131
100
AcDbEntity
8
0
100
AcDbCircle
10
136.80691076185926
20
53.444312139318455
30
0
40
1.0000000000000036
210
0
220
-0
230
1
0
CIRCLE
5
132
100
AcDbEntity
8
0
100
AcDbCircle
10
-137.19308925535901
20
53.444312139318455
30
0
40
1.0000000000000036
210
0
220
-0
230
1
0
CIRCLE
5
133
100
AcDbEntity
8
0
100
AcDbCircle
10
-137.19308923814074
20
217.677269400971
30
0
40
1.5000000000000036
210
0
220
-0
230
1
0
CIRCLE
5
134
100
AcDbEntity
8
0
100
AcDbCircle
10
136.80691076185926
20
217.67726940097094
30
0
40
1.5000000000000036
210
0
220
-0
230
1
0
CIRCLE
5
135
100
AcDbEntity
8
0
100
AcDbCircle
10
0.3069107618591671
20
212.67726940097108
30
0
40
1.5000000000000002
210
0
220
-0
230
1
0
LWPOLYLINE
5
136
100
AcDbEntity
8
0
100
AcDbPolyline
90
4
70
1
43
0.0
10
-150.19308923814074
20
-66.322730599028858
10
149.80691076185926
20
-66.322730599028873
10
149.80691076185926
20
233.67726940097114
10
-150.19308923814074
20
233.67726940097114
0
SPLINE
5
137
100
AcDbEntity
8
0
100
AcDbSpline
70
4
71
3
72
8
73
4
74
0
42
0.000000001
43
0.0000000001
44
0.0000000001
40
0
40
0
40
0
40
0
40
1
40
1
40
1
40
1
41
1
41
1
41
1
41
1
10
-93.919791666666654
20
85.286458333333314
30
0
10
-91.591458333333321
20
84.810208333333321
30
0
10
-90.691874999999982
20
84.810208333333321
30
0
10
-88.363541666666663
20
85.286458333333314
30
0
0
SPLINE
5
138
100
AcDbEntity
8
0
100
AcDbSpline
70
4
71
3
72
8
73
4
74
0
42
0.000000001
43
0.0000000001
44
0.0000000001
40
0
40
0
40
0
40
0
40
1
40
1
40
1
40
1
41
1
41
1
41
1
41
1
10
-88.363541666666663
20
85.286458333333314
30
0
10
-81.484375
20
86.715208333333322
30
0
10
-75.451874999999987
20
93.2239583333333
30
0
10
-72.779583333333321
20
102.08749999999998
30
0
0
SPLINE
5
139
100
AcDbEntity
8
0
100
AcDbSpline
70
4
71
3
72
8
73
4
74
0
42
0.000000001
43
0.0000000001
44
0.0000000001
40
0
40
0
40
0
40
0
40
1
40
1
40
1
40
1
41
1
41
1
41
1
41
1
10
-72.779583333333321
20
102.08749999999998
30
0
10
-71.536041666666648
20
106.24145833333333
30
0
10
-71.192083333333315
20
108.78145833333333
30
0
10
-71.192083333333315
20
113.46458333333329
30
0
0
SPLINE
5
140
100
AcDbEntity
8
0
100
AcDbSpline
70
4
71
3
72
8
73
4
74
0
42
0.000000001
43
0.0000000001
44
0.0000000001
40
0
40
0
40
0
40
0
40
1
40
1
40
1
40
1
41
1
41
1
41
1
41
1
10
-71.192083333333315
20
113.46458333333329
30
0
10
-71.192083333333315
20
118.518125
30
0
10
-71.641874999999985
20
121.40208333333334
30
0
10
-73.044166666666655
20
125.63541666666664
30
0
0
SPLINE
5
141
100
AcDbEntity
8
0
100
AcDbSpline
70
4
71
3
72
8
73
4
74
0
42
0.000000001
43
0.0000000001
44
0.0000000001
40
0
40
0
40
0
40
0
40
1
40
1
40
1
40
1
41
1
41
1
41
1
41
1
10
-73.044166666666655
20
125.63541666666664
30
0
10
-74.684583333333322
20
130.583125
30
0
10
-76.986458333333317
20
134.28729166666662
30
0
10
-80.399583333333311
20
137.46229166666669
30
0
0
SPLINE
5
142
100
AcDbEntity
8
0
100
AcDbSpline
70
4
71
3
72
8
73
4
74
0
42
0.000000001
43
0.0000000001
44
0.0000000001
40
0
40
0
40
0
40
0
40
1
40
1
40
1
40
1
41
1
41
1
41
1
41
1
10
-80.399583333333311
20
137.46229166666669
30
0
10
-84.394791666666649
20
141.21937500000004
30
0
10
-89.633541666666645
20
142.7804166666667
30
0
10
-94.316666666666663
20
141.64270833333336
30
0
0
SPLINE
5
143
100
AcDbEntity
8
0
100
AcDbSpline
70
4
71
3
72
8
73
4
74
0
42
0.000000001
43
0.0000000001
44
0.0000000001
40
0
40
0
40
0
40
0
40
1
40
1
40
1
40
1
41
1
41
1
41
1
41
1
10
-94.316666666666663
20
141.64270833333336
30
0
10
-104.92645833333333
20
139.04979166666666
30
0
10
-112.17604166666666
20
125.37083333333331
30
0
10
-110.95895833333331
20
110.31604166666666
30
0
0
SPLINE
5
144
100
AcDbEntity
8
0
100
AcDbSpline
70
4
71
3
72
8
73
4
74
0
42
0.000000001
43
0.0000000001
44
0.0000000001
40
0
40
0
40
0
40
0
40
1
40
1
40
1
40
1
41
1
41
1
41
1
41
1
10
-110.95895833333331
20
110.31604166666666
30
0
10
-110.27104166666666
20
101.79645833333333
30
0
10
-107.41354166666667
20
95.049583333333288
30
0
10
-102.35999999999999
20
89.996041666666656
30
0
0
SPLINE
5
145
100
AcDbEntity
8
0
100
AcDbSpline
70
4
71
3
72
8
73
4
74
0
42
0.000000001
43
0.0000000001
44
0.0000000001
40
0
40
0
40
0
40
0
40
1
40
1
40
1
40
1
41
1
41
1
41
1
41
1
10
-102.35999999999999
20
89.996041666666656
30
0
10
-99.846458333333317
20
87.508958333333297
30
0
10
-97.015416666666653
20
85.947916666666643
30
0
10
-93.919791666666654
20
85.286458333333314
30
0
0
SPLINE
5
146
100
AcDbEntity
8
0
100
AcDbSpline
70
4
71
3
72
8
73
4
74
0
42
0.000000001
43
0.0000000001
44
0.0000000001
40
0
40
0
40
0
40
0
40
1
40
1
40
1
40
1
41
1
41
1
41
1
41
1
10
13.183541666666692
20
96.531249999999957
30
0
10
15.77645833333337
20
98.674374999999955
30
0
10
17.893125000000012
20
101.92874999999999
30
0
10
18.290000000000024
20
104.41583333333332
30
0
0
SPLINE
5
147
100
AcDbEntity
8
0
100
AcDbSpline
70
4
71
3
72
8
73
4
74
0
42
0.000000001
43
0.0000000001
44
0.0000000001
40
0
40
0
40
0
40
0
40
1
40
1
40
1
40
1
41
1
41
1
41
1
41
1
10
18.290000000000024
20
104.41583333333332
30
0
10
18.528125000000006
20
105.9239583333333
30
0
10
17.840208333333329
20
107.69666666666666
30
0
10
16.649583333333329
20
108.59624999999997
30
0
0
SPLINE
5
148
100
AcDbEntity
8
0
100
AcDbSpline
70
4
71
3
72
8
73
4
74
0
42
0.000000001
43
0.0000000001
44
0.0000000001
40
0
40
0
40
0
40
0
40
1
40
1
40
1
40
1
41
1
41
1
41
1
41
1
10
16.649583333333329
20
108.59624999999997
30
0
10
15.697083333333399
20
109.33708333333334
30
0
10
13.924375000000033
20
109.68104166666666
30
0
10
12.733750000000033
20
109.38999999999999
30
0
0
SPLINE
5
149
100
AcDbEntity
8
0
100
AcDbSpline
70
4
71
3
72
8
73
4
74
0
42
0.000000001
43
0.0000000001
44
0.0000000001
40
0
40
0
40
0
40
0
40
1
40
1
40
1
40
1
41
1
41
1
41
1
41
1
10
12.733750000000033
20
109.38999999999999
30
0
10
11.62250000000002
20
109.12541666666664
30
0
10
10.431875000000037
20
107.88187500000001
30
0
10
9.6381250000000485
20
106.215
30
0
0
SPLINE
5
150
100
AcDbEntity
8
0
100
AcDbSpline
70
4
71
3
72
8
73
4
74
0
42
0.000000001
43
0.0000000001
44
0.0000000001
40
0
40
0
40
0
40
0
40
1
40
1
40
1
40
1
41
1
41
1
41
1
41
1
10
9.6381250000000485
20
106.215
30
0
10
8.7650000000000361
20
104.33645833333333
30
0
10
8.526875000000036
20
104.01895833333333
30
0
10
7.2833333333333528
20
103.11937500000002
30
0
0
SPLINE
5
151
100
AcDbEntity
8
0
100
AcDbSpline
70
4
71
3
72
8
73
4
74
0
42
0.000000001
43
0.0000000001
44
0.0000000001
40
0
40
0
40
0
40
0
40
1
40
1
40
1
40
1
41
1
41
1
41
1
41
1
10
7.2833333333333528
20
103.11937500000002
30
0
10
5.9075000000000166
20
102.08749999999998
30
0
10
4.3729166666666863
20
101.58479166666666
30
0
10
1.7800000000000438
20
101.29374999999999
30
0
0
SPLINE
5
152
100
AcDbEntity
8
0
100
AcDbSpline
70
4
71
3
72
8
73
4
74
0
42
0.000000001
43
0.0000000001
44
0.0000000001
40
0
40
0
40
0
40
0
40
1
40
1
40
1
40
1
41
1
41
1
41
1
41
1
10
1.7800000000000438
20
101.29374999999999
30
0
10
-1.0245833333332843
20
100.97624999999999
30
0
10
-4.1466666666666363
20
101.29374999999999
30
0
10
-6.3427083333332934
20
102.11395833333333
30
0
0
SPLINE
5
153
100
AcDbEntity
8
0
100
AcDbSpline
70
4
71
3
72
8
73
4
74
0
42
0.000000001
43
0.0000000001
44
0.0000000001
40
0
40
0
40
0
40
0
40
1
40
1
40
1
40
1
41
1
41
1
41
1
41
1
10
-6.3427083333332934
20
102.11395833333333
30
0
10
-8.1418749999999562
20
102.77541666666663
30
0
10
-10.232083333333293
20
104.706875
30
0
10
-10.549583333333308
20
105.9239583333333
30
0
0
SPLINE
5
154
100
AcDbEntity
8
0
100
AcDbSpline
70
4
71
3
72
8
73
4
74
0
42
0.000000001
43
0.0000000001
44
0.0000000001
40
0
40
0
40
0
40
0
40
1
40
1
40
1
40
1
41
1
41
1
41
1
41
1
10
-10.549583333333308
20
105.9239583333333
30
0
10
-11.263958333333308
20
108.83437499999998
30
0
10
-14.624166666666625
20
110.42187499999996
30
0
10
-16.926041666666656
20
108.99312499999999
30
0
0
SPLINE
5
155
100
AcDbEntity
8
0
100
AcDbSpline
70
4
71
3
72
8
73
4
74
0
42
0.000000001
43
0.0000000001
44
0.0000000001
40
0
40
0
40
0
40
0
40
1
40
1
40
1
40
1
41
1
41
1
41
1
41
1
10
-16.926041666666656
20
108.99312499999999
30
0
10
-19.624791666666628
20
107.32625000000002
30
0
10
-19.942291666666634
20
104.73333333333332
30
0
10
-17.904999999999973
20
100.92333333333332
30
0
0
SPLINE
5
156
100
AcDbEntity
8
0
100
AcDbSpline
70
4
71
3
72
8
73
4
74
0
42
0.000000001
43
0.0000000001
44
0.0000000001
40
0
40
0
40
0
40
0
40
1
40
1
40
1
40
1
41
1
41
1
41
1
41
1
10
-17.904999999999973
20
100.92333333333332
30
0
10
-16.926041666666656
20
99.04479166666664
30
0
10
-13.830416666666636
20
96.028541666666655
30
0
10
-11.846041666666638
20
94.996666666666641
30
0
0
SPLINE
5
157
100
AcDbEntity
8
0
100
AcDbSpline
70
4
71
3
72
8
73
4
74
0
42
0.000000001
43
0.0000000001
44
0.0000000001
40
0
40
0
40
0
40
0
40
1
40
1
40
1
40
1
41
1
41
1
41
1
41
1
10
-11.846041666666638
20
94.996666666666641
30
0
10
-4.0672916666666481
20
90.922083333333305
30
0
10
7.2568750000000293
20
91.609999999999957
30
0
10
13.183541666666692
20
96.531249999999957
30
0
0
SPLINE
5
158
100
AcDbEntity
8
0
100
AcDbSpline
70
4
71
3
72
8
73
4
74
0
42
0.000000001
43
0.0000000001
44
0.0000000001
40
0
40
0
40
0
40
0
40
1
40
1
40
1
40
1
41
1
41
1
41
1
41
1
10
70.386458333333366
20
113.33229166666663
30
0
10
70.386458333333366
20
107.9083333333333
30
0
10
70.439375000000013
20
107.32625000000002
30
0
10
71.100833333333384
20
104.73333333333332
30
0
0
SPLINE
5
159
100
AcDbEntity
8
0
100
AcDbSpline
70
4
71
3
72
8
73
4
74
0
42
0.000000001
43
0.0000000001
44
0.0000000001
40
0
40
0
40
0
40
0
40
1
40
1
40
1
40
1
41
1
41
1
41
1
41
1
10
71.100833333333384
20
104.73333333333332
30
0
10
72.741250000000051
20
98.198125000000005
30
0
10
75.122500000000073
20
93.726666666666659
30
0
10
78.826666666666725
20
90.048958333333303
30
0
0
SPLINE
5
160
100
AcDbEntity
8
0
100
AcDbSpline
70
4
71
3
72
8
73
4
74
0
42
0.000000001
43
0.0000000001
44
0.0000000001
40
0
40
0
40
0
40
0
40
1
40
1
40
1
40
1
41
1
41
1
41
1
41
1
10
78.826666666666725
20
90.048958333333303
30
0
10
85.8645833333334
20
83.116874999999993
30
0
10
95.098541666666705
20
83.328541666666695
30
0
10
101.9777083333334
20
90.578124999999957
30
0
0
SPLINE
5
161
100
AcDbEntity
8
0
100
AcDbSpline
70
4
71
3
72
8
73
4
74
0
42
0.000000001
43
0.0000000001
44
0.0000000001
40
0
40
0
40
0
40
0
40
1
40
1
40
1
40
1
41
1
41
1
41
1
41
1
10
101.9777083333334
20
90.578124999999957
30
0
10
105.81416666666672
20
94.626249999999956
30
0
10
108.24833333333338
20
99.706249999999969
30
0
10
109.57125000000005
20
106.45312499999997
30
0
0
SPLINE
5
162
100
AcDbEntity
8
0
100
AcDbSpline
70
4
71
3
72
8
73
4
74
0
42
0.000000001
43
0.0000000001
44
0.0000000001
40
0
40
0
40
0
40
0
40
1
40
1
40
1
40
1
41
1
41
1
41
1
41
1
10
109.57125000000005
20
106.45312499999997
30
0
10
110.23270833333339
20
109.78687499999998
30
0
10
110.23270833333339
20
117.19520833333333
30
0
10
109.59770833333337
20
120.47604166666662
30
0
0
SPLINE
5
163
100
AcDbEntity
8
0
100
AcDbSpline
70
4
71
3
72
8
73
4
74
0
42
0.000000001
43
0.0000000001
44
0.0000000001
40
0
40
0
40
0
40
0
40
1
40
1
40
1
40
1
41
1
41
1
41
1
41
1
10
109.59770833333337
20
120.47604166666662
30
0
10
107.48104166666667
20
131.11229166666666
30
0
10
101.79250000000008
20
138.99687500000002
30
0
10
94.595833333333346
20
141.27229166666669
30
0
0
SPLINE
5
164
100
AcDbEntity
8
0
100
AcDbSpline
70
4
71
3
72
8
73
4
74
0
42
0.000000001
43
0.0000000001
44
0.0000000001
40
0
40
0
40
0
40
0
40
1
40
1
40
1
40
1
41
1
41
1
41
1
41
1
10
94.595833333333346
20
141.27229166666669
30
0
10
92.34687500000004
20
141.98666666666671
30
0
10
88.85437500000009
20
142.14541666666668
30
0
10
86.843541666666681
20
141.64270833333336
30
0
0
SPLINE
5
165
100
AcDbEntity
8
0
100
AcDbSpline
70
4
71
3
72
8
73
4
74
0
42
0.000000001
43
0.0000000001
44
0.0000000001
40
0
40
0
40
0
40
0
40
1
40
1
40
1
40
1
41
1
41
1
41
1
41
1
10
86.843541666666681
20
141.64270833333336
30
0
10
85.970416666666722
20
141.43104166666666
30
0
10
84.356458333333393
20
140.76958333333332
30
0
10
83.218750000000028
20
140.16104166666668
30
0
0
SPLINE
5
166
100
AcDbEntity
8
0
100
AcDbSpline
70
4
71
3
72
8
73
4
74
0
42
0.000000001
43
0.0000000001
44
0.0000000001
40
0
40
0
40
0
40
0
40
1
40
1
40
1
40
1
41
1
41
1
41
1
41
1
10
83.218750000000028
20
140.16104166666668
30
0
10
77.318541666666675
20
137.11833333333334
30
0
10
72.9264583333334
20
130.37145833333332
30
0
10
70.862708333333416
20
121.26979166666663
30
0
0
SPLINE
5
167
100
AcDbEntity
8
0
100
AcDbSpline
70
4
71
3
72
8
73
4
74
0
42
0.000000001
43
0.0000000001
44
0.0000000001
40
0
40
0
40
0
40
0
40
1
40
1
40
1
40
1
41
1
41
1
41
1
41
1
10
70.862708333333416
20
121.26979166666663
30
0
10
70.492291666666702
20
119.57645833333331
30
0
10
70.386458333333366
20
118.01541666666664
30
0
10
70.386458333333366
20
113.33229166666663
30
0
0
CIRCLE
5
168
100
AcDbEntity
8
0
100
AcDbCircle
10
136.80691076185926
20
53.444312139318455
30
0
40
1.0000000000000036
210
0
220
-0
230
1
0
CIRCLE
5
169
100
AcDbEntity
8
0
100
AcDbCircle
10
-137.19308925535901
20
53.444312139318455
30
0
40
1.0000000000000036
210
0
220
-0
230
1
0
CIRCLE
5
170
100
AcDbEntity
8
0
100
AcDbCircle
10
-137.19308923814074
20
217.677269400971
30
0
40
1.5000000000000036
210
0
220
-0
230
1
0
CIRCLE
5
171
100
AcDbEntity
8
0
100
AcDbCircle
10
136.80691076185926
20
217.67726940097094
30
0
40
1.5000000000000036
210
0
220
-0
230
1
0
CIRCLE
5
172
100
AcDbEntity
8
0
100
AcDbCircle
10
0.3069107618591671
20
212.67726940097108
30
0
40
1.5000000000000002
210
0
220
-0
230
1
0
LWPOLYLINE
5
173
100
AcDbEntity
8
0
100
AcDbPolyline
90
4
70
1
43
0.0
10
-150.19308923814074
20
-66.322730599028858
10
-150.19308923814074
20
233.67726940097114
10
149.80691076185926
20
233.67726940097114
10
149.80691076185926
20
-66.322730599028858
0
ENDSEC
0
SECTION
2
OBJECTS
0
DICTIONARY
5
C
100
AcDbDictionary
3
ACAD_GROUP
350
D
3
ACAD_MLINESTYLE
350
17
0
DICTIONARY
5
D
100
AcDbDictionary
0
DICTIONARY
5
1A
330
C
100
AcDbDictionary
0
DICTIONARY
5
17
100
AcDbDictionary
0
ENDSEC
0
EOF
