0
SECTION
2
HEADER
9
$INSUNITS
70
4
9
$ACADVER
1
AC1014
9
$HANDSEED
5
FFFF
0
ENDSEC
0
SECTION
2
TABLES
0
TABLE
2
VPORT
5
8
100
AcDbSymbolTable
0
ENDTAB
0
TABLE
2
LTYPE
5
5
100
AcDbSymbolTable
0
LTYPE
5
14
100
AcDbSymbolTableRecord
100
AcDbLinetypeTableRecord
2
BYBLOCK
70
0
0
LTYPE
5
15
100
AcDbSymbolTableRecord
100
AcDbLinetypeTableRecord
2
BYLAYER
70
0
0
LTYPE
5
16
100
AcDbSymbolTableRecord
100
AcDbLinetypeTableRecord
2
DASHED
70
0
3
Dashed __ __ __ __ __ __ __ __ __ __ __ __ __ _
72
65
73
2
40
0.75
49
0.5
74
0
49
-0.25
74
0
0
ENDTAB
0
TABLE
2
LAYER
5
2
100
AcDbSymbolTable
70
2
0
LAYER
5
50
100
AcDbSymbolTableRecord
100
AcDbLayerTableRecord
2
0
70
0
62
7
6
CONTINUOUS
0
ENDTAB
0
TABLE
2
STYLE
5
3
100
AcDbSymbolTable
70
1
0
STYLE
5
11
100
AcDbSymbolTableRecord
100
AcDbTextStyleTableRecord
2
STANDARD
70
0
0
ENDTAB
0
TABLE
2
VIEW
5
6
100
AcDbSymbolTable
70
0
0
ENDTAB
0
TABLE
2
UCS
5
7
100
AcDbSymbolTable
70
0
0
ENDTAB
0
TABLE
2
APPID
5
9
100
AcDbSymbolTable
70
2
0
APPID
5
12
100
AcDbSymbolTableRecord
100
AcDbRegAppTableRecord
2
ACAD
70
0
0
ENDTAB
0
TABLE
2
DIMSTYLE
5
A
100
AcDbSymbolTable
70
1
0
ENDTAB
0
TABLE
2
BLOCK_RECORD
5
1
100
AcDbSymbolTable
70
1
0
BLOCK_RECORD
5
1F
100
AcDbSymbolTableRecord
100
AcDbBlockTableRecord
2
*MODEL_SPACE
0
BLOCK_RECORD
5
1B
100
AcDbSymbolTableRecord
100
AcDbBlockTableRecord
2
*PAPER_SPACE
0
ENDTAB
0
ENDSEC
0
SECTION
2
BLOCKS
0
BLOCK
5
20
100
AcDbEntity
100
AcDbBlockBegin
2
*MODEL_SPACE
0
ENDBLK
5
21
100
AcDbEntity
100
AcDbBlockEnd
0
BLOCK
5
1C
100
AcDbEntity
100
AcDbBlockBegin
2
*PAPER_SPACE
0
ENDBLK
5
1D
100
AcDbEntity
100
AcDbBlockEnd
0
ENDSEC
0
SECTION
2
ENTITIES
0
CIRCLE
5
100
100
AcDbEntity
8
0
100
AcDbCircle
10
132.19308925535901
20
-129.33901883254478
30
0
40
0.99999999999999645
210
-2.0107646833859492e-87
220
-1.9259299443872359e-34
230
1
0
CIRCLE
5
101
100
AcDbEntity
8
0
100
AcDbCircle
10
132.19308925535901
20
-1.8390188325447809
30
0
40
0.99999999999999645
210
-2.0107646833859492e-87
220
-1.9259299443872359e-34
230
1
0
CIRCLE
5
102
100
AcDbEntity
8
0
100
AcDbCircle
10
132.19308925535901
20
125.66098116745522
30
0
40
0.99999999999999645
210
-2.0107646833859492e-87
220
-1.9259299443872359e-34
230
1
0
CIRCLE
5
103
100
AcDbEntity
8
0
100
AcDbCircle
10
-131.80691076185926
20
125.66098116745522
30
0
40
0.99999999999999645
210
-2.0107646833859492e-87
220
-1.9259299443872359e-34
230
1
0
CIRCLE
5
104
100
AcDbEntity
8
0
100
AcDbCircle
10
-131.80691076185926
20
-1.8390188325447809
30
0
40
0.99999999999999645
210
-2.0107646833859492e-87
220
-1.9259299443872359e-34
230
1
0
CIRCLE
5
105
100
AcDbEntity
8
0
100
AcDbCircle
10
-131.80691076185926
20
-129.33901883254478
30
0
40
0.99999999999999645
210
-2.0107646833859492e-87
220
-1.9259299443872359e-34
230
1
0
LWPOLYLINE
5
106
100
AcDbEntity
8
0
100
AcDbPolyline
90
4
70
1
43
0.0
10
147.19308924674982
20
140.66098118573427
10
-146.80691075325007
20
140.66098118573427
10
-146.80691075325007
20
-144.33901881426573
10
147.19308924674982
20
-144.33901881426573
0
CIRCLE
5
107
100
AcDbEntity
8
0
100
AcDbCircle
10
70.19308924674985
20
-45.239018814265734
30
0
40
10.000000000000009
210
0
220
-0
230
1
0
CIRCLE
5
108
100
AcDbEntity
8
0
100
AcDbCircle
10
85.550553001491366
20
48.279201699758772
30
0
40
1.0000000000000036
210
-6.6819117752304965e-52
220
-1.9259299443872359e-34
230
1
0
CIRCLE
5
109
100
AcDbEntity
8
0
100
AcDbCircle
10
85.341030606609081
20
29.212663765470168
30
0
40
1.0000000000000036
210
-6.6819117752304965e-52
220
-1.9259299443872359e-34
230
1
0
CIRCLE
5
110
100
AcDbEntity
8
0
100
AcDbCircle
10
-84.954852113109325
20
29.212663765470175
30
0
40
1.0000000000000036
210
-6.6819117752304965e-52
220
-1.9259299443872359e-34
230
1
0
CIRCLE
5
111
100
AcDbEntity
8
0
100
AcDbCircle
10
-89.80691075325025
20
-85.787336234529818
30
0
40
1.0000000000000036
210
-6.6819117752304965e-52
220
-1.9259299443872359e-34
230
1
0
CIRCLE
5
112
100
AcDbEntity
8
0
100
AcDbCircle
10
-85.16437450799161
20
48.279201699758772
30
0
40
1.0000000000000036
210
-6.6819117752304965e-52
220
-1.9259299443872359e-34
230
1
0
CIRCLE
5
113
100
AcDbEntity
8
0
100
AcDbCircle
10
90.193089246750006
20
-85.787336234529818
30
0
40
1.0000000000000036
210
-6.6819117752304965e-52
220
-1.9259299443872359e-34
230
1
0
CIRCLE
5
114
100
AcDbEntity
8
0
100
AcDbCircle
10
-89.80691075325025
20
-0.78733623452982282
30
0
40
1.0000000000000036
210
-6.6819117752304965e-52
220
-1.9259299443872359e-34
230
1
0
CIRCLE
5
115
100
AcDbEntity
8
0
100
AcDbCircle
10
90.193089246750006
20
-0.7873362345298186
30
0
40
1.0000000000000036
210
-6.6819117752304965e-52
220
-1.9259299443872359e-34
230
1
0
CIRCLE
5
116
100
AcDbEntity
8
0
100
AcDbCircle
10
132.19308925535901
20
-129.33901883254478
30
0
40
0.99999999999999645
210
0
220
0
230
1
0
CIRCLE
5
117
100
AcDbEntity
8
0
100
AcDbCircle
10
132.19308925535901
20
-1.8390188325447809
30
0
40
0.99999999999999645
210
0
220
0
230
1
0
CIRCLE
5
118
100
AcDbEntity
8
0
100
AcDbCircle
10
132.19308925535901
20
125.66098116745522
30
0
40
0.99999999999999645
210
0
220
0
230
1
0
CIRCLE
5
119
100
AcDbEntity
8
0
100
AcDbCircle
10
-131.80691076185926
20
125.66098116745522
30
0
40
0.99999999999999645
210
0
220
0
230
1
0
CIRCLE
5
120
100
AcDbEntity
8
0
100
AcDbCircle
10
-131.80691076185926
20
-1.8390188325447809
30
0
40
0.99999999999999645
210
0
220
0
230
1
0
CIRCLE
5
121
100
AcDbEntity
8
0
100
AcDbCircle
10
-131.80691076185926
20
-129.33901883254478
30
0
40
0.99999999999999645
210
0
220
0
230
1
0
CIRCLE
5
122
100
AcDbEntity
8
0
100
AcDbCircle
10
90.193089246750006
20
-0.7873362345298186
30
0
40
1.0000000000000036
210
0
220
0
230
1
0
CIRCLE
5
123
100
AcDbEntity
8
0
100
AcDbCircle
10
-89.80691075325025
20
-0.78733623452982282
30
0
40
1.0000000000000036
210
0
220
0
230
1
0
CIRCLE
5
124
100
AcDbEntity
8
0
100
AcDbCircle
10
90.193089246750006
20
-85.787336234529818
30
0
40
1.0000000000000036
210
0
220
0
230
1
0
CIRCLE
5
125
100
AcDbEntity
8
0
100
AcDbCircle
10
-85.16437450799161
20
48.279201699758772
30
0
40
1.0000000000000036
210
0
220
0
230
1
0
CIRCLE
5
126
100
AcDbEntity
8
0
100
AcDbCircle
10
-89.80691075325025
20
-85.787336234529818
30
0
40
1.0000000000000036
210
0
220
0
230
1
0
CIRCLE
5
127
100
AcDbEntity
8
0
100
AcDbCircle
10
-84.954852113109325
20
29.212663765470175
30
0
40
1.0000000000000036
210
0
220
0
230
1
0
CIRCLE
5
128
100
AcDbEntity
8
0
100
AcDbCircle
10
85.341030606609081
20
29.212663765470168
30
0
40
1.0000000000000036
210
0
220
0
230
1
0
CIRCLE
5
129
100
AcDbEntity
8
0
100
AcDbCircle
10
85.550553001491366
20
48.279201699758772
30
0
40
1.0000000000000036
210
0
220
0
230
1
0
CIRCLE
5
130
100
AcDbEntity
8
0
100
AcDbCircle
10
70.19308924674985
20
-45.239018814265734
30
0
40
10.000000000000009
210
0
220
-0
230
1
0
LWPOLYLINE
5
131
100
AcDbEntity
8
0
100
AcDbPolyline
90
4
70
1
43
0.0
10
147.19308924674982
20
140.66098118573427
10
147.19308924674982
20
-144.33901881426573
10
-146.80691075325007
20
-144.33901881426573
10
-146.80691075325007
20
140.66098118573427
0
ENDSEC
0
SECTION
2
OBJECTS
0
DICTIONARY
5
C
100
AcDbDictionary
3
ACAD_GROUP
350
D
3
ACAD_MLINESTYLE
350
17
0
DICTIONARY
5
D
100
AcDbDictionary
0
DICTIONARY
5
1A
330
C
100
AcDbDictionary
0
DICTIONARY
5
17
100
AcDbDictionary
0
ENDSEC
0
EOF
